<svg width="29" height="28" viewBox="0 0 29 28" fill="none" xmlns="http://www.w3.org/2000/svg">
<path d="M4.98489 0L3.52661 1.48039L5.69643 3.68518L7.15264 2.20479L4.98386 0H4.98489ZM24.0161 0L21.8463 2.20479L23.3036 3.68518L25.4724 1.48144L24.0151 0H24.0161ZM14.5 0.657015C14.1582 0.661227 13.8123 0.681232 13.4643 0.724401C13.4539 0.724401 13.4436 0.722296 13.4332 0.724401C9.23236 1.214 5.88907 4.66438 5.30804 8.91603C4.84404 12.338 6.23189 15.4409 8.54464 17.4393C9.49067 18.2601 10.1306 19.3864 10.3571 20.6296V26.9471H12.7186C13.079 27.5757 13.7367 28 14.5 28C15.2633 28 15.921 27.5757 16.2814 26.9471H18.6429V22.7355H18.7402V21.4846C18.7402 19.941 19.5294 18.3848 20.8116 17.175C22.5268 15.4293 23.8214 12.9497 23.8214 10.1016C23.8214 4.90024 19.6102 0.608581 14.5 0.657015ZM14.5 2.76283C18.503 2.70598 21.75 6.03738 21.75 10.1016C21.75 12.3064 20.7454 14.248 19.3544 15.661L19.3875 15.6947C18.0052 16.9905 17.1114 18.7363 16.8604 20.6307H12.3302C12.1023 18.826 11.3411 17.0792 9.90246 15.8263C8.07236 14.2469 6.98175 11.8673 7.34632 9.18031C7.79893 5.86365 10.4462 3.19663 13.6901 2.83127C13.9579 2.79331 14.2276 2.77081 14.4979 2.76389L14.5 2.76283ZM0 10.1016V12.2074H3.10714V10.1016H0ZM25.8929 10.1016V12.2074H29V10.1016H25.8929ZM5.69643 18.6238L3.52764 20.8276L4.98489 22.309L7.15161 20.1042L5.69643 18.6238ZM23.3036 18.6238L21.8474 20.1042L24.0151 22.309L25.4724 20.8276L23.3036 18.6238ZM12.4286 22.7365H16.5714V24.8423H12.4286V22.7365Z" fill="#F7F8FC" fill-opacity="0.9"/>
</svg>
