<svg width="19" height="30" viewBox="0 0 19 30" fill="none" xmlns="http://www.w3.org/2000/svg">
<path d="M16.7568 12.5676V15.7095C16.7568 17.6539 15.9844 19.5186 14.6096 20.8934C13.2347 22.2683 11.37 23.0406 9.42572 23.0406C7.48138 23.0406 5.61669 22.2683 4.24184 20.8934C2.86699 19.5186 2.0946 17.6539 2.0946 15.7095V12.5676H0V15.7095C0.00110016 18.0273 0.856121 20.2634 2.40169 21.9905C3.94727 23.7177 6.07502 24.8149 8.37842 25.0724V27.2299H4.18921V29.3245H14.6622V27.2299H10.473V25.0724C12.7764 24.8149 14.9042 23.7177 16.4497 21.9905C17.9953 20.2634 18.8503 18.0273 18.8514 15.7095V12.5676H16.7568Z" fill="#F7F8FC" fill-opacity="0.9"/>
<path d="M9.42584 20.946C10.8146 20.946 12.1466 20.3943 13.1286 19.4123C14.1106 18.4303 14.6623 17.0983 14.6623 15.7095V5.23651C14.6623 3.8477 14.1106 2.51577 13.1286 1.53374C12.1466 0.551702 10.8146 0 9.42584 0C8.03703 0 6.7051 0.551702 5.72307 1.53374C4.74103 2.51577 4.18933 3.8477 4.18933 5.23651V15.7095C4.18933 17.0983 4.74103 18.4303 5.72307 19.4123C6.7051 20.3943 8.03703 20.946 9.42584 20.946ZM6.28393 5.23651C6.28393 4.40322 6.61496 3.60407 7.20418 3.01485C7.7934 2.42562 8.59255 2.0946 9.42584 2.0946C10.2591 2.0946 11.0583 2.42562 11.6475 3.01485C12.2367 3.60407 12.5677 4.40322 12.5677 5.23651V15.7095C12.5677 16.5428 12.2367 17.342 11.6475 17.9312C11.0583 18.5204 10.2591 18.8514 9.42584 18.8514C8.59255 18.8514 7.7934 18.5204 7.20418 17.9312C6.61496 17.342 6.28393 16.5428 6.28393 15.7095V5.23651Z" fill="#F7F8FC" fill-opacity="0.9"/>
</svg>
